<?xml version="1.0" encoding="UTF-8" standalone="no"?>
<!-- Created with Inkscape (http://www.inkscape.org/) -->

<svg
   width="210mm"
   height="297mm"
   viewBox="0 0 210 297"
   version="1.1"
   id="svg1"
   inkscape:version="1.3.2 (091e20e, 2023-11-25)"
   sodipodi:docname="lesson_003.svg"
   xmlns:inkscape="http://www.inkscape.org/namespaces/inkscape"
   xmlns:sodipodi="http://sodipodi.sourceforge.net/DTD/sodipodi-0.dtd"
   xmlns="http://www.w3.org/2000/svg"
   xmlns:svg="http://www.w3.org/2000/svg">
  <sodipodi:namedview
     id="namedview1"
     pagecolor="#ffffff"
     bordercolor="#000000"
     borderopacity="0.25"
     inkscape:showpageshadow="2"
     inkscape:pageopacity="0.0"
     inkscape:pagecheckerboard="0"
     inkscape:deskcolor="#d1d1d1"
     inkscape:document-units="mm"
     inkscape:zoom="1.9352719"
     inkscape:cx="187.8289"
     inkscape:cy="731.42177"
     inkscape:window-width="1512"
     inkscape:window-height="830"
     inkscape:window-x="0"
     inkscape:window-y="33"
     inkscape:window-maximized="1"
     inkscape:current-layer="walls"
     showgrid="false" />
  <defs
     id="defs1" />
  <g
     inkscape:groupmode="layer"
     id="walls"
     inkscape:label="walls"
     style="display:inline">
    <path
       style="fill:#ffff00;fill-opacity:1;stroke:#000000;stroke-width:1.3;stroke-opacity:1"
       d="m 107.69158,111.98884 c 0,0 -9.761132,6.91636 -11.25238,27.68258 -1.650024,22.97724 -2.170194,22.93432 -2.23671,44.53031 -0.0298,9.67391 -12.867673,28.24028 -21.982683,31.48097 -8.713269,3.09786 -18.881104,11.89728 -27.400454,8.30027 -8.709647,-3.67735 -17.221559,-7.79191 -17.471042,-17.24276 -1.198139,-45.38757 6.837078,-135.764832 6.837078,-135.764832 h 22.790258 c 0,0 -4.416254,91.465992 -1.627874,129.578902 0.277266,3.7898 11.257511,3.47186 11.39513,-0.32557 0.686238,-18.9359 0.504372,-44.59722 0.150948,-65.52456 -0.353424,-20.92734 17.204955,-39.266189 17.204955,-39.266189"
       id="path1"
       sodipodi:nodetypes="csssssccsssc" />
  </g>
  <g
     inkscape:groupmode="layer"
     id="checkpoints"
     inkscape:label="checkpoints">
    <path
       style="fill:#0014ff;fill-opacity:1;stroke:#2c26ab;stroke-width:1.3;stroke-opacity:1"
       d="M 33.659969,74.117604 H 56.775803"
       id="path2" />
    <path
       style="fill:#0014ff;fill-opacity:1;stroke:#2c26ab;stroke-width:1.3;stroke-opacity:1"
       d="m 53.637092,141.29543 -25.132808,1.53249"
       id="path3" />
    <path
       style="fill:#0014ff;fill-opacity:1;stroke:#2c26ab;stroke-width:1.3;stroke-opacity:1"
       d="M 54.556585,200.14298 26.3588,201.06248"
       id="path4" />
    <path
       style="fill:#0014ff;fill-opacity:1;stroke:#2c26ab;stroke-width:1.3;stroke-opacity:1"
       d="M 57.621564,202.28847 44.135667,223.4368"
       id="path5" />
    <path
       style="fill:#0014ff;fill-opacity:1;stroke:#2c26ab;stroke-width:1.3;stroke-opacity:1"
       d="m 63.751517,202.59496 8.281762,13.2474"
       id="path6"
       sodipodi:nodetypes="cc" />
    <path
       style="fill:#0014ff;fill-opacity:1;stroke:#2c26ab;stroke-width:1.3;stroke-opacity:1"
       d="m 66.717298,195.66886 22.036636,2.6682"
       id="path7"
       sodipodi:nodetypes="cc" />
    <path
       style="fill:#0014ff;fill-opacity:1;stroke:#2c26ab;stroke-width:1.3;stroke-opacity:1"
       d="m 65.897,140.98893 30.036772,4.8226"
       id="path8"
       sodipodi:nodetypes="cc" />
    <path
       style="fill:#0014ff;fill-opacity:1;stroke:#2c26ab;stroke-width:1.3;stroke-opacity:1"
       d="m 84.28686,95.320776 23.90682,17.163874"
       id="path9"
       sodipodi:nodetypes="cc" />
  </g>
</svg>
