<?xml version="1.0" encoding="UTF-8" standalone="no"?>
<!-- Created with Inkscape (http://www.inkscape.org/) -->

<svg
   width="210mm"
   height="297mm"
   viewBox="0 0 210 297"
   version="1.1"
   id="svg1"
   inkscape:version="1.3.2 (091e20e, 2023-11-25)"
   sodipodi:docname="lesson_003.svg"
   xmlns:inkscape="http://www.inkscape.org/namespaces/inkscape"
   xmlns:sodipodi="http://sodipodi.sourceforge.net/DTD/sodipodi-0.dtd"
   xmlns="http://www.w3.org/2000/svg"
   xmlns:svg="http://www.w3.org/2000/svg">
  <sodipodi:namedview
     id="namedview1"
     pagecolor="#ffffff"
     bordercolor="#000000"
     borderopacity="0.25"
     inkscape:showpageshadow="2"
     inkscape:pageopacity="0.0"
     inkscape:pagecheckerboard="0"
     inkscape:deskcolor="#d1d1d1"
     inkscape:document-units="mm"
     inkscape:zoom="1.2584005"
     inkscape:cx="402.09775"
     inkscape:cy="373.09267"
     inkscape:window-width="1512"
     inkscape:window-height="830"
     inkscape:window-x="0"
     inkscape:window-y="33"
     inkscape:window-maximized="1"
     inkscape:current-layer="checkpoints"
     showgrid="false" />
  <defs
     id="defs1" />
  <g
     inkscape:groupmode="layer"
     id="walls"
     inkscape:label="walls"
     style="display:inline">
    <path
       style="fill:#ffff00;stroke:#000000;stroke-width:1.3"
       d="m 166.66646,128.9197 c 0,0 1.60577,-23.24197 0.29035,-30.48777 -1.31542,-7.245798 -2.29527,-9.031686 -4.93611,-12.775826 -2.64084,-3.74414 -3.82594,-6.617699 -10.45295,-9.00115 -8.57017,-3.082322 -25.74365,-7.189417 -38.32747,9.581869 -12.58382,16.771287 -8.37003,29.963737 -12.77583,36.294957 -4.405801,6.33122 -1.987401,5.10236 -9.001151,7.54935 -7.01375,2.44699 -26.40354,2.75755 -32.810645,-0.87107 -6.407105,-3.62862 -5.060415,-5.69339 -6.097553,-9.58187 -1.037138,-3.88848 -1.441803,-9.40331 0.58072,-12.77583 2.022523,-3.37252 5.780078,-5.45677 9.291509,-5.51683 3.511431,-0.0601 6.961016,1.84399 9.00115,4.93611 2.040134,3.09212 1.161438,11.90475 1.161438,11.90475 l 16.550502,0.29036 c 0,0 2.45506,-13.29662 -0.290359,-20.03482 -2.745419,-6.738203 -9.465599,-14.268958 -16.260142,-17.131221 -6.794543,-2.862263 -13.605853,-2.186752 -20.615537,0.29036 -7.009684,2.477112 -15.070955,6.991753 -18.873379,14.808343 -3.802424,7.816588 -2.119876,20.436408 0,28.164888 2.119876,7.72848 6.412155,13.68318 10.162589,17.13122 3.750434,3.44804 0.81757,2.66406 9.581869,4.64576 8.764299,1.9817 32.498494,2.4477 43.263591,-0.29036 10.765098,-2.73806 16.080768,-6.11102 20.615538,-11.03367 4.53477,-4.92265 5.23941,-9.85917 6.67827,-15.38906 1.43886,-5.52989 0.25104,-6.75725 1.74216,-11.03367 3.79267,-13.658836 17.24929,-9.406596 19.74446,3.19395 1.056,5.33278 -1.16144,17.42159 -1.16144,17.42159"
       id="path1"
       sodipodi:nodetypes="czzzzzzzzzzzcczzzzzzzzzzzzc" />
  </g>
  <g
     inkscape:groupmode="layer"
     id="checkpoints"
     inkscape:label="checkpoints">
    <path
       style="fill:#0000ff;stroke:#3527ca;stroke-width:1.3;stroke-opacity:1"
       d="m 90.656471,114.69207 -18.42134,-0.38398"
       id="path2"
       sodipodi:nodetypes="cc" />
    <path
       style="fill:#0000ff;stroke:#3527ca;stroke-width:1.3;stroke-opacity:1"
       d="M 69.395961,105.1102 87.107902,94.366894"
       id="path3" />
    <path
       style="fill:#0000ff;stroke:#3527ca;stroke-width:1.3;stroke-opacity:1"
       d="M 62.46066,101.82521 V 78.813384"
       id="path4" />
    <path
       style="fill:#0000ff;stroke:#3527ca;stroke-width:1.3;stroke-opacity:1"
       d="M 52.682743,107.55709 33.379785,93.480259"
       id="path5" />
    <path
       style="fill:#0000ff;stroke:#3527ca;stroke-width:1.3;stroke-opacity:1"
       d="m 52.935621,122.39255 -18.460035,6.6591"
       id="path6" />
    <path
       style="fill:#0000ff;stroke:#3527ca;stroke-width:1.3;stroke-opacity:1"
       d="m 62.039198,130.23174 -8.260654,16.43702"
       id="path7" />
    <path
       style="fill:#0000ff;stroke:#3527ca;stroke-width:1.3;stroke-opacity:1"
       d="m 80.920692,131.58042 1.685848,15.84697"
       id="path8" />
    <path
       style="fill:#0000ff;stroke:#3527ca;stroke-width:1.3;stroke-opacity:1"
       d="m 98.032048,126.35429 14.835462,11.63235"
       id="path9" />
    <path
       style="fill:#0000ff;stroke:#3527ca;stroke-width:1.3;stroke-opacity:1"
       d="m 104.60685,102.41525 19.64013,7.67061"
       id="path10" />
    <path
       style="fill:#0000ff;stroke:#3527ca;stroke-width:1.3;stroke-opacity:1"
       d="M 132.9291,100.05506 127.11292,74.85164"
       id="path11" />
    <path
       style="fill:#0000ff;stroke:#3527ca;stroke-width:1.3;stroke-opacity:1"
       d="M 139.16673,102.58384 159.73408,81.763618"
       id="path12" />
    <path
       style="fill:#0000ff;stroke:#3527ca;stroke-width:1.3;stroke-opacity:1"
       d="m 144.98291,112.53034 23.13587,-3.07715"
       id="path13"
       sodipodi:nodetypes="cc" />
    <path
       style="fill:#0000ff;stroke:#3527ca;stroke-width:1.3;stroke-opacity:1"
       d="m 143.54994,128.54589 23.01182,-0.50575"
       id="path14" />
  </g>
</svg>
