<?xml version="1.0" encoding="UTF-8" standalone="no"?>
<!-- Created with Inkscape (http://www.inkscape.org/) -->

<svg
   width="210mm"
   height="297mm"
   viewBox="0 0 210 297"
   version="1.1"
   id="svg1"
   inkscape:version="1.3.2 (091e20e, 2023-11-25)"
   sodipodi:docname="lesson_001.svg"
   xmlns:inkscape="http://www.inkscape.org/namespaces/inkscape"
   xmlns:sodipodi="http://sodipodi.sourceforge.net/DTD/sodipodi-0.dtd"
   xmlns="http://www.w3.org/2000/svg"
   xmlns:svg="http://www.w3.org/2000/svg">
  <sodipodi:namedview
     id="namedview1"
     pagecolor="#ffffff"
     bordercolor="#000000"
     borderopacity="0.25"
     inkscape:showpageshadow="2"
     inkscape:pageopacity="0.0"
     inkscape:pagecheckerboard="0"
     inkscape:deskcolor="#d1d1d1"
     inkscape:document-units="mm"
     inkscape:zoom="1.3357843"
     inkscape:cx="455.53761"
     inkscape:cy="343.99266"
     inkscape:window-width="1512"
     inkscape:window-height="830"
     inkscape:window-x="0"
     inkscape:window-y="33"
     inkscape:window-maximized="1"
     inkscape:current-layer="checkpoints"
     showgrid="false" />
  <defs
     id="defs1" />
  <g
     inkscape:groupmode="layer"
     id="walls"
     inkscape:label="walls"
     style="display:inline">
    <path
       style="fill:#fdff05;fill-opacity:1;stroke:#000000;stroke-width:1.65597;stroke-opacity:1"
       d="m 195.61169,92.127357 c -33.2001,0.78454 -48.70517,2.604103 -59.55742,9.735243 -19.19571,12.61373 -13.63742,20.11391 -26.91327,37.64325 -6.25346,8.25705 -14.541483,14.7963 -24.69612,17.57674 -6.397563,1.75172 -15.484891,-2.64824 -21.847777,-0.83126 -9.862538,2.81633 -23.702577,17.72721 -23.702577,17.72721 l 3.2e-5,-2e-5 -9.691475,-12.57767 c 0,0 15.945012,-14.78349 26.741393,-17.53768 6.199764,-1.58158 13.878843,-2.81937 20.000625,-4.54931 8.771968,-2.47884 13.789217,-6.62365 19.164906,-13.83692 4.269987,-5.72961 11.398513,-38.782571 35.111093,-47.896136 23.86144,-9.17078 28.79165,-2.99659 63.98558,-3.496975"
       id="path1"
       sodipodi:nodetypes="csssscccssssc" />
  </g>
  <g
     inkscape:groupmode="layer"
     id="checkpoints"
     inkscape:label="checkpoints">
    <path
       style="display:inline;fill:#fdff05;fill-opacity:1;stroke:#271cff;stroke-width:1.59095;stroke-opacity:1"
       d="M 44.39856,167.95388 35.373032,156.0102"
       id="path2" />
    <path
       style="display:inline;fill:#fdff05;fill-opacity:1;stroke:#271cff;stroke-width:1.65738;stroke-opacity:1"
       d="M 66.979828,156.60187 65.55652,141.95219"
       id="path2-3"
       sodipodi:nodetypes="cc" />
    <path
       style="display:inline;fill:#fdff05;fill-opacity:1;stroke:#271cff;stroke-width:1.58887;stroke-opacity:1"
       d="M 98.139866,151.45231 85.941614,135.34345"
       id="path2-3-5"
       sodipodi:nodetypes="cc" />
    <path
       style="display:inline;fill:#fdff05;fill-opacity:1;stroke:#271cff;stroke-width:1.7801;stroke-opacity:1"
       d="M 117.42779,125.06746 99.281103,118.637"
       id="path2-3-5-7"
       sodipodi:nodetypes="cc" />
    <path
       style="display:inline;fill:#fdff05;fill-opacity:1;stroke:#271cff;stroke-width:1.54438;stroke-opacity:1"
       d="M 138.82863,100.67844 128.29558,78.747249"
       id="path2-3-5-7-1"
       sodipodi:nodetypes="cc" />
    <path
       style="display:inline;fill:#fdff05;fill-opacity:1;stroke:#271cff;stroke-width:1.54438;stroke-opacity:1"
       d="M 192.90889,92.033614 192.31057,73.620927"
       id="path2-3-5-7-1-2"
       sodipodi:nodetypes="cc" />
  </g>
</svg>
