<?xml version="1.0" encoding="UTF-8" standalone="no"?>
<!-- Created with Inkscape (http://www.inkscape.org/) -->

<svg
   width="210mm"
   height="297mm"
   viewBox="0 0 210 297"
   version="1.1"
   id="svg1"
   inkscape:version="1.3.2 (091e20e, 2023-11-25)"
   sodipodi:docname="lesson_000.svg"
   xmlns:inkscape="http://www.inkscape.org/namespaces/inkscape"
   xmlns:sodipodi="http://sodipodi.sourceforge.net/DTD/sodipodi-0.dtd"
   xmlns="http://www.w3.org/2000/svg"
   xmlns:svg="http://www.w3.org/2000/svg">
  <sodipodi:namedview
     id="namedview1"
     pagecolor="#ffffff"
     bordercolor="#000000"
     borderopacity="0.25"
     inkscape:showpageshadow="2"
     inkscape:pageopacity="0.0"
     inkscape:pagecheckerboard="0"
     inkscape:deskcolor="#d1d1d1"
     inkscape:document-units="mm"
     inkscape:zoom="1.9781519"
     inkscape:cx="331.11714"
     inkscape:cy="408.71482"
     inkscape:window-width="1512"
     inkscape:window-height="830"
     inkscape:window-x="0"
     inkscape:window-y="33"
     inkscape:window-maximized="1"
     inkscape:current-layer="walls"
     showgrid="false" />
  <defs
     id="defs1" />
  <g
     inkscape:groupmode="layer"
     id="walls"
     inkscape:label="walls"
     style="display:inline">
    <path
       id="rect1"
       style="fill:#fdff05;stroke:#000000;stroke-width:1.06724"
       d="m 187.14276,114.35195 c 0,0 -8.94049,-0.11705 -20.41295,-0.27024 -5.73623,-0.0766 -1.69633,11.5371 -6.93971,14.8499 -4.30666,2.72099 -23.60111,-18.34104 -28.66505,-17.87832 -6.29948,0.57561 -9.95387,-1.49118 -16.25535,-2.04452 -4.74816,-0.41694 -11.35568,2.91822 -15.669423,0.74869 -5.555965,-2.79429 -11.113202,1.91862 -19.245988,4.37214 -5.372498,1.6208 -14.112144,7.69408 -21.476531,7.73792 -7.364387,0.0438 -13.186543,-10.40504 -20.202333,-10.4635 -14.031581,-0.11691 -44.3864188,-0.0832 -44.3864188,-0.0832 V 92.388043 c 0,0 30.3774268,-0.822002 44.4203018,-1.09925 7.021438,-0.138624 15.451331,-12.522069 22.811482,-12.418101 7.360152,0.103968 14.109884,7.49718 18.967251,10.307284 4.463662,2.582334 11.604421,5.911682 17.415146,6.381904 5.701043,0.461346 13.245063,0.729686 18.217673,-2.096615 5.00651,-2.84557 9.85317,-0.872044 15.40419,-1.342728 5.06685,-0.42963 27.06538,-22.90461 29.62467,-16.828099 2.46431,5.850988 0.5677,12.063662 6.49862,12.17107 11.86184,0.214815 21.32401,-0.02432 21.32401,-0.02432"
       sodipodi:nodetypes="cssssssssccssssssssc" />
    <path
       style="fill:#ffffff;fill-opacity:1;stroke:#000000;stroke-width:1.3;stroke-opacity:1"
       d="m 48.855276,101.42715 c 0,0 2.274434,2.1148 3.5951,2.13675 6.814024,0.11327 15.441807,-1.88021 15.441807,-1.88021 0,0 -11.114929,-3.63089 -15.509642,-3.092239 -1.629316,0.199702 -3.527265,2.835699 -3.527265,2.835699 z"
       id="path7"
       sodipodi:nodetypes="cscsc" />
  </g>
  <g
     inkscape:groupmode="layer"
     id="checkpoints"
     inkscape:label="checkpoints">
    <path
       style="fill:#fdff05;fill-opacity:1;stroke:#0e02e9;stroke-width:1.3;stroke-opacity:1"
       d="m -3.3845105,111.49829 0.099519,-19.135711"
       id="path1"
       sodipodi:nodetypes="cc" />
    <path
       style="fill:#fdff05;fill-opacity:1;stroke:#0e02e9;stroke-width:1.3;stroke-opacity:1"
       d="M 73.417147,83.996907 72.569469,117.44286"
       id="path2"
       sodipodi:nodetypes="cc" />
    <path
       style="fill:#fdff05;fill-opacity:1;stroke:#0e02e9;stroke-width:1.3;stroke-opacity:1"
       d="M 98.177595,109.94481 100.36627,95.050921"
       id="path3"
       sodipodi:nodetypes="cc" />
    <path
       style="fill:#fdff05;fill-opacity:1;stroke:#0e02e9;stroke-width:1.3;stroke-opacity:1"
       d="m 114.39115,109.46763 1.42091,-16.647077"
       id="path4"
       sodipodi:nodetypes="cc" />
    <path
       style="fill:#fdff05;fill-opacity:1;stroke:#0e02e9;stroke-width:1.3;stroke-opacity:1"
       d="m 132.88369,90.986244 -0.061,20.369236"
       id="path5"
       sodipodi:nodetypes="cc" />
    <path
       style="fill:#fdff05;fill-opacity:1;stroke:#0e02e9;stroke-width:1.3;stroke-opacity:1"
       d="m 188.22584,87.241166 -1.20552,27.321964"
       id="path6"
       sodipodi:nodetypes="cc" />
  </g>
</svg>
