<?xml version="1.0" encoding="UTF-8" standalone="no"?>
<!-- Created with Inkscape (http://www.inkscape.org/) -->

<svg
   width="210mm"
   height="297mm"
   viewBox="0 0 210 297"
   version="1.1"
   id="svg1"
   inkscape:version="1.3.2 (091e20e, 2023-11-25)"
   sodipodi:docname="lesson_001.svg"
   xmlns:inkscape="http://www.inkscape.org/namespaces/inkscape"
   xmlns:sodipodi="http://sodipodi.sourceforge.net/DTD/sodipodi-0.dtd"
   xmlns="http://www.w3.org/2000/svg"
   xmlns:svg="http://www.w3.org/2000/svg">
  <sodipodi:namedview
     id="namedview1"
     pagecolor="#ffffff"
     bordercolor="#000000"
     borderopacity="0.25"
     inkscape:showpageshadow="2"
     inkscape:pageopacity="0.0"
     inkscape:pagecheckerboard="0"
     inkscape:deskcolor="#d1d1d1"
     inkscape:document-units="mm"
     inkscape:zoom="0.43117557"
     inkscape:cx="128.71787"
     inkscape:cy="212.21054"
     inkscape:window-width="1512"
     inkscape:window-height="830"
     inkscape:window-x="0"
     inkscape:window-y="33"
     inkscape:window-maximized="1"
     inkscape:current-layer="walls"
     showgrid="false" />
  <defs
     id="defs1" />
  <g
     inkscape:groupmode="layer"
     id="walls"
     inkscape:label="walls"
     style="display:inline">
    <path
       style="fill:#fdff05;fill-opacity:1;stroke:#000000;stroke-width:1.65597;stroke-opacity:1"
       d="m 83.161108,38.592607 c -0.145567,33.209049 1.239048,48.758996 8.063464,59.806704 12.071188,19.541439 19.724088,14.195379 36.874758,27.956949 8.07867,6.48225 14.38324,14.95016 16.8782,25.17868 1.57187,6.44412 -3.08087,15.40466 -1.4428,21.81593 2.53902,9.93755 17.05645,24.18975 17.05645,24.18975 l -2e-5,-3e-5 -12.84416,9.33542 c 0,0 -14.33114,-16.35278 -16.78188,-27.22206 -1.40733,-6.24163 -2.42958,-13.95236 -3.98739,-20.12019 -2.2322,-8.83795 -6.23487,-13.96931 -13.29476,-19.5449 -5.60778,-4.42878 -38.448136,-12.48019 -46.894033,-36.4387 C 58.290016,79.441242 64.599859,74.685879 65.085309,39.49174"
       id="path1"
       sodipodi:nodetypes="csssscccssssc" />
  </g>
  <g
     inkscape:groupmode="layer"
     id="checkpoints"
     inkscape:label="checkpoints">
    <path
       style="display:inline;fill:#fdff05;fill-opacity:1;stroke:#271cff;stroke-width:1.59095;stroke-opacity:1"
       d="m 154.72302,191.87002 -12.19176,8.68749"
       id="path2" />
    <path
       style="display:inline;fill:#fdff05;fill-opacity:1;stroke:#271cff;stroke-width:1.65738;stroke-opacity:1"
       d="m 144.00788,168.97968 -14.6838,1.01247"
       id="path2-3"
       sodipodi:nodetypes="cc" />
    <path
       style="display:inline;fill:#fdff05;fill-opacity:1;stroke:#271cff;stroke-width:1.58887;stroke-opacity:1"
       d="m 139.733,137.68765 -16.44416,11.74232"
       id="path2-3-5"
       sodipodi:nodetypes="cc" />
    <path
       style="display:inline;fill:#fdff05;fill-opacity:1;stroke:#271cff;stroke-width:1.7801;stroke-opacity:1"
       d="m 113.89868,117.66836 -6.93615,17.95948"
       id="path2-3-5-7"
       sodipodi:nodetypes="cc" />
    <path
       style="display:inline;fill:#fdff05;fill-opacity:1;stroke:#271cff;stroke-width:1.54438;stroke-opacity:1"
       d="M 90.118575,95.592875 67.900998,105.50759"
       id="path2-3-5-7-1"
       sodipodi:nodetypes="cc" />
    <path
       style="display:inline;fill:#fdff05;fill-opacity:1;stroke:#271cff;stroke-width:1.54438;stroke-opacity:1"
       d="m 82.991708,41.291722 -18.422221,0.08242"
       id="path2-3-5-7-1-2"
       sodipodi:nodetypes="cc" />
  </g>
</svg>
