<?xml version="1.0" encoding="UTF-8" standalone="no"?>
<!-- Created with Inkscape (http://www.inkscape.org/) -->

<svg
   width="210mm"
   height="297mm"
   viewBox="0 0 210 297"
   version="1.1"
   id="svg1"
   inkscape:version="1.3.2 (091e20e, 2023-11-25)"
   sodipodi:docname="lesson_001.svg"
   xmlns:inkscape="http://www.inkscape.org/namespaces/inkscape"
   xmlns:sodipodi="http://sodipodi.sourceforge.net/DTD/sodipodi-0.dtd"
   xmlns="http://www.w3.org/2000/svg"
   xmlns:svg="http://www.w3.org/2000/svg">
  <sodipodi:namedview
     id="namedview1"
     pagecolor="#ffffff"
     bordercolor="#000000"
     borderopacity="0.25"
     inkscape:showpageshadow="2"
     inkscape:pageopacity="0.0"
     inkscape:pagecheckerboard="0"
     inkscape:deskcolor="#d1d1d1"
     inkscape:document-units="mm"
     inkscape:zoom="1.8081816"
     inkscape:cx="556.08351"
     inkscape:cy="754.07247"
     inkscape:window-width="1512"
     inkscape:window-height="830"
     inkscape:window-x="0"
     inkscape:window-y="33"
     inkscape:window-maximized="1"
     inkscape:current-layer="checkpoints"
     showgrid="false" />
  <defs
     id="defs1" />
  <g
     inkscape:groupmode="layer"
     id="walls"
     inkscape:label="walls"
     style="display:inline">
    <path
       style="fill:#fdff05;fill-opacity:1;stroke:#000000;stroke-width:1.65597;stroke-opacity:1"
       d="m 83.161108,62.524274 c -0.145567,33.209049 1.239048,48.758996 8.063464,59.806706 12.071188,19.54144 19.724088,14.19538 36.874758,27.95695 8.07867,6.48225 14.38324,14.95016 16.8782,25.17868 2.38045,19.04616 14.35113,21.73045 26.73933,31.72035 3.24957,3.27514 7.77829,11.44878 7.77829,11.44878 -8.12923,6.24524 -33.26114,31.47297 -38.87658,37.82279 0,0 -8.83594,-7.58555 -10.65874,-12.84127 -4.37384,-12.61115 3.45603,-29.16236 1.00529,-40.03164 -1.40733,-6.24163 -2.42958,-13.95236 -3.98739,-20.12019 -2.2322,-8.83795 -6.23487,-13.96931 -13.29476,-19.5449 -5.60778,-4.42878 -38.448136,-12.48019 -46.894033,-36.4387 -8.498921,-24.10892 -2.189078,-28.864284 -1.703628,-64.058423"
       id="path1"
       sodipodi:nodetypes="csssaccassssc" />
  </g>
  <g
     inkscape:groupmode="layer"
     id="checkpoints"
     inkscape:label="checkpoints">
    <path
       style="display:inline;fill:#fdff05;fill-opacity:1;stroke:#271cff;stroke-width:1.59095;stroke-opacity:1"
       d="m 176.86774,213.87217 -39.50249,38.84285"
       id="path2"
       sodipodi:nodetypes="cc" />
    <path
       style="display:inline;fill:#fdff05;fill-opacity:1;stroke:#271cff;stroke-width:1.65738;stroke-opacity:1"
       d="m 149.12928,189.39953 -19.8052,7.01183"
       id="path2-3"
       sodipodi:nodetypes="cc" />
    <path
       style="display:inline;fill:#fdff05;fill-opacity:1;stroke:#271cff;stroke-width:1.58887;stroke-opacity:1"
       d="m 139.733,161.61932 -16.44416,11.74232"
       id="path2-3-5"
       sodipodi:nodetypes="cc" />
    <path
       style="display:inline;fill:#fdff05;fill-opacity:1;stroke:#271cff;stroke-width:1.7801;stroke-opacity:1"
       d="m 113.89868,141.60003 -6.93615,17.95948"
       id="path2-3-5-7"
       sodipodi:nodetypes="cc" />
    <path
       style="display:inline;fill:#fdff05;fill-opacity:1;stroke:#271cff;stroke-width:1.54438;stroke-opacity:1"
       d="m 90.118575,119.52454 -22.217577,9.91472"
       id="path2-3-5-7-1"
       sodipodi:nodetypes="cc" />
    <path
       style="display:inline;fill:#fdff05;fill-opacity:1;stroke:#271cff;stroke-width:1.54438;stroke-opacity:1"
       d="m 82.991708,65.223389 -18.422221,0.08242"
       id="path2-3-5-7-1-2"
       sodipodi:nodetypes="cc" />
  </g>
</svg>
